<svg width="2401" height="585" viewBox="0 0 2401 585" fill="none" xmlns="http://www.w3.org/2000/svg">
<path d="M615.17 490V217H723.2C737.5 217 750.37 220.51 761.81 227.53C773.25 234.55 782.35 244.3 789.11 256.78C795.87 269 799.25 282.78 799.25 298.12C799.25 314.24 795.87 328.67 789.11 341.41C782.35 353.89 773.25 363.9 761.81 371.44C750.37 378.72 737.5 382.36 723.2 382.36H645.59V490H615.17ZM645.59 352.72H724.76C732.82 352.72 739.97 350.38 746.21 345.7C752.71 340.76 757.91 334.26 761.81 326.2C765.71 317.88 767.66 308.39 767.66 297.73C767.66 288.11 765.71 279.53 761.81 271.99C757.91 264.19 752.71 258.08 746.21 253.66C739.97 248.98 732.82 246.64 724.76 246.64H645.59V352.72ZM801.84 490L906.36 217H941.07L1044.81 490H1011.66L944.97 312.94C943.15 308 941.07 302.28 938.73 295.78C936.65 289.02 934.31 282.13 931.71 275.11C929.37 267.83 927.03 260.81 924.69 254.05C922.61 247.29 920.66 241.31 918.84 236.11H926.64C924.56 242.61 922.35 249.24 920.01 256C917.93 262.5 915.72 269.13 913.38 275.89C911.04 282.39 908.7 288.89 906.36 295.39C904.02 301.89 901.68 308.39 899.34 314.89L833.04 490H801.84ZM846.3 414.73L857.61 385.09H986.7L999.18 414.73H846.3ZM1094.67 490V217H1201.53C1217.39 217 1231.69 220.77 1244.43 228.31C1257.43 235.59 1267.7 245.6 1275.24 258.34C1282.78 271.08 1286.55 285.51 1286.55 301.63C1286.55 316.71 1282.91 330.36 1275.63 342.58C1268.35 354.8 1258.47 364.55 1245.99 371.83C1233.51 378.85 1219.47 382.36 1203.87 382.36H1125.09V490H1094.67ZM1261.2 490L1192.56 369.88L1221.81 359.74L1297.47 490H1261.2ZM1125.09 352.72H1206.6C1216.22 352.72 1224.67 350.51 1231.95 346.09C1239.23 341.67 1244.95 335.69 1249.11 328.15C1253.27 320.35 1255.35 311.51 1255.35 301.63C1255.35 290.97 1252.88 281.48 1247.94 273.16C1243 264.84 1236.11 258.34 1227.27 253.66C1218.69 248.98 1208.81 246.64 1197.63 246.64H1125.09V352.72ZM1352.13 490V217H1517.49V246.64H1382.55V460.36H1516.71V490H1352.13ZM1366.17 364.42V334.78H1495.65V364.42H1366.17ZM1585.6 490V217H1696.36C1712.22 217 1725.87 219.86 1737.31 225.58C1749.01 231.04 1757.98 238.97 1764.22 249.37C1770.46 259.51 1773.58 271.6 1773.58 285.64C1773.58 300.72 1769.29 313.72 1760.71 324.64C1752.13 335.3 1740.43 342.71 1725.61 346.87L1724.83 339.46C1737.57 341.8 1748.62 346.35 1757.98 353.11C1767.34 359.61 1774.62 367.67 1779.82 377.29C1785.28 386.91 1788.01 397.7 1788.01 409.66C1788.01 421.88 1785.93 432.93 1781.77 442.81C1777.61 452.69 1771.63 461.14 1763.83 468.16C1756.29 475.18 1747.06 480.64 1736.14 484.54C1725.48 488.18 1713.52 490 1700.26 490H1585.6ZM1616.02 460.36H1697.92C1709.62 460.36 1719.76 458.41 1728.34 454.51C1737.18 450.35 1743.94 444.5 1748.62 436.96C1753.56 429.42 1756.03 420.71 1756.03 410.83C1756.03 401.47 1753.43 393.28 1748.23 386.26C1743.29 379.24 1736.27 373.78 1727.17 369.88C1718.33 365.98 1707.93 364.03 1695.97 364.03H1616.02V460.36ZM1616.02 334.39H1694.02C1703.38 334.39 1711.7 332.57 1718.98 328.93C1726.26 325.03 1731.98 319.83 1736.14 313.33C1740.3 306.57 1742.38 299.03 1742.38 290.71C1742.38 277.45 1737.83 266.79 1728.73 258.73C1719.89 250.67 1707.41 246.64 1691.29 246.64H1616.02V334.39ZM1959.96 493.9C1940.72 493.9 1922.91 490.52 1906.53 483.76C1890.41 476.74 1876.24 466.99 1864.02 454.51C1852.06 442.03 1842.7 427.34 1835.94 410.44C1829.44 393.28 1826.19 374.56 1826.19 354.28C1826.19 334 1829.44 315.41 1835.94 298.51C1842.7 281.35 1852.06 266.53 1864.02 254.05C1876.24 241.31 1890.41 231.56 1906.53 224.8C1922.91 217.78 1940.72 214.27 1959.96 214.27C1979.46 214.27 1997.27 217.78 2013.39 224.8C2029.77 231.56 2043.94 241.31 2055.9 254.05C2068.12 266.53 2077.48 281.35 2083.98 298.51C2090.74 315.41 2094.12 334 2094.12 354.28C2094.12 374.3 2090.74 392.89 2083.98 410.05C2077.48 426.95 2068.12 441.77 2055.9 454.51C2043.94 466.99 2029.77 476.74 2013.39 483.76C1997.27 490.52 1979.46 493.9 1959.96 493.9ZM1959.96 463.87C1974.78 463.87 1988.43 461.27 2000.91 456.07C2013.65 450.61 2024.57 442.94 2033.67 433.06C2042.77 423.18 2049.79 411.61 2054.73 398.35C2059.93 384.83 2062.53 370.14 2062.53 354.28C2062.53 338.16 2059.93 323.47 2054.73 310.21C2049.79 296.69 2042.77 284.99 2033.67 275.11C2024.57 265.23 2013.65 257.56 2000.91 252.1C1988.43 246.64 1974.78 243.91 1959.96 243.91C1945.14 243.91 1931.36 246.64 1918.62 252.1C1906.14 257.56 1895.35 265.23 1886.25 275.11C1877.15 284.99 1870.13 296.69 1865.19 310.21C1860.25 323.47 1857.78 338.16 1857.78 354.28C1857.78 370.14 1860.25 384.83 1865.19 398.35C1870.13 411.61 1877.15 423.18 1886.25 433.06C1895.35 442.94 1906.14 450.61 1918.62 456.07C1931.36 461.27 1945.14 463.87 1959.96 463.87ZM2306.28 490L2215.8 362.08L2111.28 217H2149.5L2234.13 337.9L2344.5 490H2306.28ZM2109.33 490L2212.29 342.97L2231.4 364.81L2144.43 490H2109.33ZM2239.98 360.52L2222.04 339.07L2305.11 217H2340.6L2239.98 360.52Z" fill="#C2410C"/>
<path d="M0 489.5V353L104.5 288V407L0 489.5Z" fill="#A13408"/>
<path d="M527 489.5H0L104.5 407H422.5V280L527 215V489.5Z" fill="#C2410C"/>
<path d="M527 215L422.5 280H0L104.5 215H527Z" fill="#D7683B"/>
<path d="M0 0V280L104.5 215V82.5H424L527 0H0Z" fill="#C2410C"/>
<path d="M423 207L422.5 82.5L527 0V142L423 207Z" fill="#A13408"/>
</svg>
